<?xml version="1.0" encoding="utf-8"?>
<!-- Generator: Adobe Illustrator 19.2.0, SVG Export Plug-In . SVG Version: 6.00 Build 0)  -->
<svg version="1.1" id="Capa_1" xmlns="http://www.w3.org/2000/svg" xmlns:xlink="http://www.w3.org/1999/xlink" x="0px" y="0px"
	 viewBox="0 0 512 512" style="enable-background:new 0 0 512 512;" xml:space="preserve">
<style type="text/css">
	.st0{fill:#808080;}
</style>
<g>
	<g id="c124_arrow">
		<path class="st0" d="M236.7,83c-0.4,0.4-0.6,0.8-1,1.2c-0.5,0.5-1.1,0.9-1.6,1.3L119.3,200.3c-14.9,14.9-15.5,38.4-1.3,52.6
			c14.1,14.2,37.7,13.6,52.6-1.3l56-55.9v207.1c0,20.1,16.2,36.3,36.2,36.3c20.1,0,36.3-16.3,36.3-36.3v-206l55.6,55.7
			c15.1,15.1,38.9,15.9,53,1.7c14.1-14.2,13.4-37.9-1.7-53L289.7,84.8C274.6,69.6,250.9,68.9,236.7,83z"/>
		<path class="st0" d="M0,256c0,141.4,114.6,256,256,256C397.4,512,512,397.3,512,256C512,114.6,397.4,0,256.1,0
			C114.6,0,0,114.6,0,256z M485.8,256c0,126.9-102.9,229.8-229.8,229.8c-127,0-229.8-102.9-229.8-229.8S129.1,26.2,256.1,26.2
			C383,26.2,485.8,129.1,485.8,256z"/>
	</g>
</g>
</svg>
