<?xml version="1.0" encoding="utf-8"?>
<!-- Generator: Adobe Illustrator 19.2.0, SVG Export Plug-In . SVG Version: 6.00 Build 0)  -->
<svg version="1.1" id="Capa_1" xmlns="http://www.w3.org/2000/svg" xmlns:xlink="http://www.w3.org/1999/xlink" x="0px" y="0px"
	 viewBox="0 0 512 512" style="enable-background:new 0 0 512 512;" xml:space="preserve">
<style type="text/css">
	.st0{fill:#DD5153;}
</style>
<g>
	<g id="c124_arrow">
		<path class="st0" d="M275.3,429c0.4-0.4,0.6-0.8,1-1.2c0.5-0.5,1.1-0.9,1.6-1.3l114.8-114.8c14.9-14.9,15.5-38.4,1.3-52.6
			c-14.1-14.2-37.7-13.6-52.6,1.3l-56,55.9V109.2c0-20.1-16.2-36.3-36.2-36.3c-20.1,0-36.3,16.3-36.3,36.3v206l-55.6-55.7
			c-15.1-15.1-38.9-15.9-53-1.7c-14.1,14.2-13.4,37.9,1.7,53l116.3,116.3C237.4,442.3,261.1,443.1,275.3,429z"/>
		<path class="st0" d="M512,256c0-141.4-114.6-256-256-256C114.6,0,0,114.6,0,256c0,141.4,114.6,256,255.9,256
			C397.4,512,512,397.4,512,256z M26.2,256C26.2,129.1,129,26.2,255.9,26.2c127,0,229.8,102.9,229.8,229.8S382.9,485.8,255.9,485.8
			C129,485.8,26.2,382.9,26.2,256z"/>
	</g>
</g>
</svg>
